<svg xmlns="http://www.w3.org/2000/svg" width="376" height="376" viewBox="0 0 376 376">
    <defs>
        <clipPath id="prefix__clip-path">
            <path id="prefix__Rectángulo_3" d="M0 0H376V376H0z" data-name="Rectángulo 3" transform="translate(924 1388)" style="fill:#511ddf"/>
        </clipPath>
        <style>
            .prefix__cls-5{fill:#eaf0ff}.prefix__cls-6{fill:#fb5d64}.prefix__cls-7{fill:#f4f7ff}.prefix__cls-15,.prefix__cls-8{fill:none;stroke-linecap:round;stroke-linejoin:round}.prefix__cls-8{stroke:#eaf0ff;stroke-width:1.494px}.prefix__cls-11{fill:#b2c3fb}.prefix__cls-13{fill:#eecb55}.prefix__cls-14{fill:#fff}.prefix__cls-15{stroke:#1b3c87;stroke-width:1.838px}.prefix__cls-16{fill:#46dbc9}
        </style>
    </defs>
    <g id="prefix__Enmascarar_grupo_1" data-name="Enmascarar grupo 1" transform="translate(-924 -1388)">
        <g id="prefix__Layer_2" data-name="Layer 2" transform="translate(923.906 1399.059)">
            <g id="prefix__Layer_1" data-name="Layer 1">
                <path id="prefix__Trazado_1" d="M340.092 29.84c24.778 30.766 17.211 88.054 13.141 141.273s-4.409 102.376-29.187 135.778c-24.863 33.426-74 50.971-118.4 46.229-44.4-4.822-83.979-32.012-123.045-65.438S4.927 214.706 6.087 176.263 48.162 100.6 87.242 69.837 163.57 14.79 210.785 4.812 315.334-.922 340.092 29.84" data-name="Trazado 1" style="fill:#f7f7f7"/>
                <path id="prefix__Rectángulo_18" d="M0 0H298.626V216.604H0z" data-name="Rectángulo 18" transform="translate(38.831 72.467)" style="fill:#d7e0ff"/>
                <path id="prefix__Rectángulo_19" d="M0 0H298.626V23.752H0z" class="prefix__cls-5" data-name="Rectángulo 19" transform="translate(38.831 72.467)"/>
                <path id="prefix__Trazado_2" d="M283.8 84.343a5.908 5.908 0 1 1-5.9-5.9 5.908 5.908 0 0 1 5.9 5.9" class="prefix__cls-6" data-name="Trazado 2"/>
                <path id="prefix__Trazado_3" d="M306.5 84.343a5.908 5.908 0 1 1-5.908-5.9 5.908 5.908 0 0 1 5.908 5.9" class="prefix__cls-6" data-name="Trazado 3"/>
                <path id="prefix__Trazado_4" d="M329.193 84.343a5.9 5.9 0 1 1 .02 0" class="prefix__cls-6" data-name="Trazado 4"/>
                <path id="prefix__Trazado_5" d="M300.309 124.734c-3.108 0-3.93 6.167-9.465 6.167H258.21v32.8h52.19v-38.967z" class="prefix__cls-7" data-name="Trazado 5"/>
                <path id="prefix__Trazado_6" d="M233.726 124.734c-3.108 0-3.93 6.167-9.465 6.167h-32.635v32.8h52.192v-38.967z" class="prefix__cls-7" data-name="Trazado 6"/>
                <path id="prefix__Trazado_7" d="M157.677 130.9h-32.639v32.8h52.2v-38.966h-10.1c-3.1 0-3.925 6.167-9.465 6.167" class="prefix__cls-7" data-name="Trazado 7"/>
                <path id="prefix__Trazado_8" d="M243.161 192.219L230.6 237.965l41.3-8.005z" class="prefix__cls-8" data-name="Trazado 8"/>
                <circle id="prefix__Elipse_4" cx="15.936" cy="15.936" r="15.936" class="prefix__cls-8" data-name="Elipse 4" transform="translate(173.847 275.312)"/>
                <circle id="prefix__Elipse_5" cx="8.474" cy="8.474" r="8.474" class="prefix__cls-8" data-name="Elipse 5" transform="translate(201.993 256.97)"/>
                <path id="prefix__Trazado_9" d="M115.573 53.378l46.916 9.963-59.709 44.834z" data-name="Trazado 9" style="stroke:#b2c3fb;stroke-width:1.494px;fill:none;stroke-linecap:round;stroke-linejoin:round"/>
                <path id="prefix__Rectángulo_20" d="M0 0H85.25V126.427H0z" class="prefix__cls-5" data-name="Rectángulo 20" transform="translate(290.844 184.254)"/>
                <path id="prefix__Trazado_10" d="M360.048 223.175a26.582 26.582 0 1 1-26.58-26.582 26.582 26.582 0 0 1 26.58 26.582" data-name="Trazado 10" style="fill:#cbd7ff"/>
                <path id="prefix__Rectángulo_21" d="M0 0H66.245V14.561H0z" class="prefix__cls-11" data-name="Rectángulo 21" transform="translate(300.349 261.891)"/>
                <path id="prefix__Rectángulo_22" d="M0 0H66.245V14.561H0z" class="prefix__cls-11" data-name="Rectángulo 22" transform="translate(300.349 286.769)"/>
                <path id="prefix__Trazado_11" d="M18.93 277.369c-.13 2.864-2.242 23.364-4.822 31.1 8.643-1.141 55.744-10.461 69.911-18.651-1.126-7.662-60.95-13.251-65.089-12.454" data-name="Trazado 11" style="fill:#3c3744"/>
                <path id="prefix__Trazado_12" d="M47.006 124.041a12.8 12.8 0 1 1-12.8-12.8 12.8 12.8 0 0 1 12.8 12.8" class="prefix__cls-13" data-name="Trazado 12"/>
                <path id="prefix__Trazado_13" d="M87.033 146.239c.912-.428 2.237-3.313 2.237-7.587 0-10.626-8.07-15.607-20.977-15.607-9.012 0-19.632 3.368-26.4 16.011-5.056 9.4-7.114 30.139-11.333 37.6-2.67 4.718-8.334 14.272-12.683 23.259-1.634 2.282-9.849 19.687 2.7 25.406s70.793 3.368 72.342.912-7.159-20-10.023-23.548-6.974-8.07-4.633-25.541.224-27.767 2.232-28.6 4.444-.882 6.546-2.306" class="prefix__cls-13" data-name="Trazado 13"/>
                <path id="prefix__Trazado_14" d="M54.658 158.464a5.435 5.435 0 1 1-5.435-5.435 5.435 5.435 0 0 1 5.435 5.435" class="prefix__cls-14" data-name="Trazado 14"/>
                <path id="prefix__Trazado_15" d="M16.868 275.312c-.13 2.864-2.242 23.364-4.822 31.1" class="prefix__cls-15" data-name="Trazado 15"/>
                <path id="prefix__Trazado_16" d="M137.282 190.615c4.209-6.665 2.989-14.352 1.181-11.986-.6.792-8.469 16.728-10.038 18.347a5.074 5.074 0 0 0-2.6.533c-1.594 1.3-1 10.372-1.594 11.169s-23.339 35.708-24.34 36.8c-.1.4-2.989-13.062-3.871-15.443a50.517 50.517 0 0 1-9.629 5.629c.194 1.539 1.151 20.569 0 26.751.966 1.913 6.8 7.711 9.286 7.711 4.777 0 9.859-1.838 11.194-2.76 5.574-3.826 27.085-53.228 28.659-54.254 3.143-2.062 8.379-9.176 9.111-13.679 0-1.993 1.634-3.293-7.373-8.837" class="prefix__cls-14" data-name="Trazado 16"/>
                <path id="prefix__Trazado_17" d="M73.782 197.43c14.033-4.583 26.8 27.279 25.8 29.85s-15.164 10.252-18.252 9.844-13-37.925-7.552-39.7" class="prefix__cls-16" data-name="Trazado 17"/>
                <path id="prefix__Trazado_18" d="M71.735 195.372c14.033-4.583 26.8 27.284 25.8 29.85s-15.164 10.252-18.252 9.854-13.028-37.925-7.548-39.704z" class="prefix__cls-15" data-name="Trazado 18"/>
                <path id="prefix__Trazado_19" d="M56.89 189.464c39.718.932 29.685 89.638 27.862 92.807-2.456 4.264-53.3 8.135-65.428-3.761-2.8-2.75-.139-89.927 37.566-89.046" class="prefix__cls-16" data-name="Trazado 19"/>
                <path id="prefix__Trazado_20" d="M50.229 187.756a22.789 22.789 0 0 1 4.6-.344c12.2.284 19.712 8.857 24.205 20.693" class="prefix__cls-15" data-name="Trazado 20"/>
                <path id="prefix__Trazado_21" d="M84.886 240.2c1.076 20.111-1.38 38.6-2.192 40.012-2.456 4.264-53.3 8.135-65.428-3.761-2.551-2.491-.578-74.893 28.2-87.262" class="prefix__cls-15" data-name="Trazado 21"/>
                <path id="prefix__Trazado_22" d="M83.69 136.425c.08 4.932-34.3 9.6-34.487 16.6s-.3 11.049-.3 11.049c1.23 6.531-1.435 29.62-2.187 32.032 2.884 2.685 17.351 2.491 18.93.867-.2-1.624-.174-12.683.239-13.948a13.986 13.986 0 0 0 1.833.125c11.064 0 20.036-13.057 20.036-29.167 0-8.419-.139-10.646-4.05-17.575" class="prefix__cls-14" data-name="Trazado 22"/>
                <path id="prefix__Trazado_23" d="M36.39 192.159c15.378 4.777 6.172 42.03 3.233 43.5s-31.743-6.76-32.33-9.993 9.5-39.6 29.1-33.506" class="prefix__cls-16" data-name="Trazado 23"/>
                <path id="prefix__Trazado_24" d="M42.981 209.3c-.125 11.323-3.761 23.473-5.415 24.3-2.939 1.47-31.743-6.76-32.33-9.993-.174-.951.573-4.757 2.217-9.51" class="prefix__cls-15" data-name="Trazado 24"/>
                <path id="prefix__Trazado_25" d="M15.552 198.207c4.713-6.247 11-10.526 18.781-8.105a9.363 9.363 0 0 1 1.813.772" class="prefix__cls-15" data-name="Trazado 25"/>
                <path id="prefix__Trazado_26" d="M108.768 227.07c6.322-9.624 13.1-19.991 13.42-20.424.6-.8 0-9.873 1.594-11.169s11.757 0 11.757 1.156-4.15 4.982-5.166 5.266" class="prefix__cls-15" data-name="Trazado 26"/>
                <path id="prefix__Trazado_27" d="M94.087 228.321c.882 2.386 3.661 15.533 3.761 15.134.254-.284 1.923-2.76 4.279-6.307" class="prefix__cls-15" data-name="Trazado 27"/>
                <path id="prefix__Trazado_28" d="M135.225 188.558c4.209-6.665 2.989-14.352 1.181-11.986-.6.792-8.469 16.728-10.038 18.347" class="prefix__cls-15" data-name="Trazado 28"/>
                <path id="prefix__Trazado_29" d="M136.63 190.3c-.563 1.066-3.143 5.365-3.143 5.365" class="prefix__cls-15" data-name="Trazado 29"/>
                <path id="prefix__Trazado_30" d="M139.389 191.995a51.85 51.85 0 0 1-3.851 7.144" class="prefix__cls-15" data-name="Trazado 30"/>
                <path id="prefix__Trazado_31" d="M141.865 193.848a66.871 66.871 0 0 1-4.4 8.05" class="prefix__cls-15" data-name="Trazado 31"/>
                <path id="prefix__Trazado_32" d="M135.195 209.665a12.129 12.129 0 0 1-1.709 1.41c-1.574 1.031-23.085 50.428-28.659 54.259-1.335.917-6.416 2.755-11.194 2.755-2.491 0-7.786-4.982-8.748-6.88" class="prefix__cls-15" data-name="Trazado 32"/>
                <path id="prefix__Trazado_33" d="M142.6 197.395a19.2 19.2 0 0 1-2.785 6.441" class="prefix__cls-15" data-name="Trazado 33"/>
                <path id="prefix__Trazado_34" d="M81.2 170.395c-3.676 6.541-9.261 10.715-15.518 10.715a15.842 15.842 0 0 1-10.845-4.638" class="prefix__cls-15" data-name="Trazado 34"/>
                <path id="prefix__Trazado_35" d="M81.643 134.368a38.358 38.358 0 0 1 4.04 17.57 41.347 41.347 0 0 1-1 9.141" class="prefix__cls-15" data-name="Trazado 35"/>
                <path id="prefix__Trazado_36" d="M50.229 160.86a5.425 5.425 0 1 1-.966-9.465" class="prefix__cls-15" data-name="Trazado 36"/>
                <path id="prefix__Trazado_37" d="M66.788 150.279c0 1.151-.5 2.087-1.136 2.087s-1.131-.937-1.131-2.087.5-2.092 1.131-2.092 1.136.937 1.136 2.092" data-name="Trazado 37" style="fill:#1b3c87"/>
                <path id="prefix__Trazado_38" d="M77.135 160.038a5.316 5.316 0 0 0 .7 1.046" class="prefix__cls-15" data-name="Trazado 38"/>
                <path id="prefix__Trazado_39" d="M76.024 153.612a14.317 14.317 0 0 0 .413 4.553" class="prefix__cls-15" data-name="Trazado 39"/>
                <path id="prefix__Trazado_40" d="M60.417 164.163c.219 1.465 1.833 3.368 4.1 4.1" class="prefix__cls-15" data-name="Trazado 40"/>
                <path id="prefix__Trazado_41" d="M63.585 194.919c-.2-1.624-.174-12.683.239-13.948" class="prefix__cls-15" data-name="Trazado 41"/>
                <path id="prefix__Trazado_42" d="M46.05 184.254a84.942 84.942 0 0 1-1.385 9.8c1.146 1.066 4.11 1.674 7.373 1.923" class="prefix__cls-15" data-name="Trazado 42"/>
                <path id="prefix__Trazado_43" d="M46.852 162.026c.5 2.536.369 7.567 0 12.917" class="prefix__cls-15" data-name="Trazado 43"/>
                <path id="prefix__Trazado_44" d="M22.671 130.592a12.8 12.8 0 0 1 5.614-20.813" class="prefix__cls-15" data-name="Trazado 44"/>
                <path id="prefix__Trazado_45" d="M43.942 117.007A12.813 12.813 0 0 1 29.1 134.443" class="prefix__cls-15" data-name="Trazado 45"/>
                <path id="prefix__Trazado_46" d="M76.811 122.452c6.576 2.192 10.4 6.84 10.4 14.143 0 4.274-1.325 7.159-2.242 7.587" class="prefix__cls-15" data-name="Trazado 46"/>
                <path id="prefix__Trazado_47" d="M32.146 163.784c2.252-9.081 4.289-20.5 7.677-26.811 6.352-11.851 16.081-15.547 24.7-15.941" class="prefix__cls-15" data-name="Trazado 47"/>
                <path id="prefix__Trazado_48" d="M15.817 197.858c2.989-6.182 6.606-12.638 9.465-17.595" class="prefix__cls-15" data-name="Trazado 48"/>
                <path id="prefix__Trazado_49" d="M75.874 190.874a14.874 14.874 0 0 0 1 4.513" class="prefix__cls-15" data-name="Trazado 49"/>
                <path id="prefix__Trazado_50" d="M75.984 176.941a45.491 45.491 0 0 0-.413 9.38" class="prefix__cls-15" data-name="Trazado 50"/>
                <path id="prefix__Trazado_51" d="M82.983 131.12c0 10.327-35.827 11.258-35.827 19.852" class="prefix__cls-15" data-name="Trazado 51"/>
                <path id="prefix__Trazado_52" d="M100.972 282.146c3.452.578 5.42-5.106 7.522-4.8 1.534.219 8.872 1.161 9.2 1.669s-.877 5.8-.877 5.8" class="prefix__cls-5" data-name="Trazado 52"/>
                <path id="prefix__Rectángulo_23" d="M0 0H32.868V52.934H0z" class="prefix__cls-5" data-name="Rectángulo 23" transform="rotate(-80.45 211.908 119.244)"/>
                <path id="prefix__Trazado_53" d="M111.757 300.6l-2.451 14.566-30.268-5.091" class="prefix__cls-15" data-name="Trazado 53"/>
                <path id="prefix__Trazado_54" d="M114.761 282.754l-1.026 6.092" class="prefix__cls-15" data-name="Trazado 54"/>
                <path id="prefix__Trazado_55" d="M61.861 307.184l-4.757-.817 5.48-32.415 44.451 7.472" class="prefix__cls-15" data-name="Trazado 55"/>
                <path id="prefix__Trazado_56" d="M98.914 280.089c3.452.578 5.425-5.106 7.522-4.8 1.534.219 8.872 1.161 9.2 1.669s-.877 5.8-.877 5.8" class="prefix__cls-15" data-name="Trazado 56"/>
                <path id="prefix__Rectángulo_24" d="M0 0H14.033V7.692H0z" class="prefix__cls-6" data-name="Rectángulo 24" transform="rotate(-80.45 226.595 91.358)"/>
                <path id="prefix__Trazado_57" d="M67.057 282.754l29.8 5.011" class="prefix__cls-15" data-name="Trazado 57"/>
                <path id="prefix__Trazado_58" d="M91.3 293.34l4.434.747" class="prefix__cls-15" data-name="Trazado 58"/>
                <path id="prefix__Trazado_59" d="M65.931 289.076l17.122 2.879" class="prefix__cls-15" data-name="Trazado 59"/>
                <path id="prefix__Trazado_60" d="M99.422 284.154c-.777-5.978-2.575-12.324-15.283-11.776-1.719-1.38-35.1-10.845-55.221-16.066 2.341-4.837 5.071-19.578 5.211-20.923-1.494-.279-23.548-7.064-23.548-7.064s-9.221 38.557-7.218 41.78c12.339 7.861 58.628 13.525 79.526 12.055 1.465 1.151 1.265 1.873 3.343 2.167s13.191-.174 13.191-.174" class="prefix__cls-14" data-name="Trazado 60"/>
                <path id="prefix__Trazado_61" d="M59.6 263.2c11.9 3.407 21.575 6.381 22.477 7.119 12.718-.548 14.511 5.774 15.288 11.776" class="prefix__cls-15" data-name="Trazado 61"/>
                <path id="prefix__Trazado_62" d="M32.071 233.352c-.144 1.325-2.874 16.066-5.211 20.923 7 1.808 15.617 4.135 23.941 6.476" class="prefix__cls-15" data-name="Trazado 62"/>
                <path id="prefix__Trazado_63" d="M86.361 276.477a18.083 18.083 0 0 1 .623 6.3" class="prefix__cls-15" data-name="Trazado 63"/>
                <path id="prefix__Trazado_64" d="M90.2 276.477a17.849 17.849 0 0 1 .623 6.3" class="prefix__cls-15" data-name="Trazado 64"/>
                <path id="prefix__Trazado_65" d="M93.29 276.477a17.973 17.973 0 0 1 .618 6.3" class="prefix__cls-15" data-name="Trazado 65"/>
                <path id="prefix__Trazado_66" d="M1.818 258.205c-.872 5.37-1.24 9.385-.5 9.844 17.251 10.959 69.388 12.673 79.526 12.055" class="prefix__cls-15" data-name="Trazado 66"/>
                <path id="prefix__Trazado_67" d="M8.523 226.288c-.189.668-1.968 8.14-3.756 16.594" class="prefix__cls-15" data-name="Trazado 67"/>
            </g>
        </g>
    </g>
</svg>
