<svg version="1.1" xmlns="http://www.w3.org/2000/svg" xmlns:xlink="http://www.w3.org/1999/xlink" x="0px" y="0px" width="290px"
	 height="265px" viewBox="0 0 290 265" style="enable-background:new 0 0 290 265;" xml:space="preserve">
<style type="text/css">
	.st0{fill:#8A9597;}
</style>
<defs>
</defs>
<g>
	<g>
		<path class="st0" d="M288.65,251.11l-60.95-99.35c-1.66-2.71-4.56-4.34-7.74-4.34c-3.18,0-6.07,1.62-7.73,4.34l-7.91,12.9
			c-1.23,2.01-0.61,4.64,1.4,5.87c2,1.23,4.62,0.61,5.85-1.4l7.91-12.9c0.04-0.07,0.17-0.28,0.49-0.28s0.46,0.21,0.49,0.28
			l60.95,99.35c0.05,0.08,0.18,0.29,0.01,0.58s-0.41,0.3-0.5,0.3h-33.75l-94.42-153.87c-0.85-1.38-2.01-2.49-3.37-3.23h0.01V70.41
			c3.54,0.97,6.99,1.37,10.36,1.37c9.7,0,18.79-3.38,27.68-6.69c12.32-4.58,23.96-8.92,36.54-3.86c1.62,0.65,3.45,0.46,4.9-0.53
			c1.45-0.99,2.32-2.62,2.32-4.37V8.14c0-2.12-1.26-4.04-3.2-4.86c-15.98-6.83-29.98-1.62-43.53,3.42
			c-12.69,4.72-24.67,9.18-37.72,3.33c-1.32-0.59-2.85-0.47-4.05,0.32c-1.21,0.78-1.94,2.13-1.94,3.58v0.16
			c-0.07,0.32-0.11,0.64-0.11,0.99v84.29c-1.36,0.74-2.52,1.84-3.37,3.22l-44.83,73.06l-14.65-23.88c-1.66-2.71-4.56-4.34-7.74-4.34
			c-3.18,0-6.07,1.62-7.74,4.34L1.34,251.11c-1.72,2.81-1.79,6.35-0.19,9.22c1.6,2.88,4.65,4.67,7.94,4.67h271.82
			c3.29,0,6.33-1.79,7.94-4.67C290.45,257.46,290.37,253.92,288.65,251.11z M149.25,19.99c13.77,3.79,26.14-0.82,38.16-5.29
			c11.89-4.42,23.15-8.62,35.25-4.34v41.45c-13.81-3.8-26.2,0.81-38.21,5.28c-11.86,4.42-23.11,8.6-35.2,4.34V19.99z M52.83,256.47
			l14.6-23.79c1.23-2.01,0.61-4.64-1.4-5.87c-2-1.23-4.62-0.61-5.85,1.4l-17.34,28.26H9.09c-0.09,0-0.34,0-0.5-0.3
			c-0.16-0.3-0.04-0.5,0.01-0.58l60.95-99.35c0.04-0.07,0.17-0.28,0.49-0.28c0.33,0,0.46,0.21,0.49,0.28l16.9,27.55l-16.88,27.5
			c-1.23,2.01-0.61,4.64,1.4,5.87s4.62,0.61,5.85-1.4l66.7-108.71c0.04-0.07,0.17-0.28,0.49-0.28s0.46,0.21,0.49,0.28l91.68,149.41
			L52.83,256.47L52.83,256.47z"/>
	</g>
</g>
</svg>