<svg version="1.1" xmlns="http://www.w3.org/2000/svg" xmlns:xlink="http://www.w3.org/1999/xlink" x="0px" y="0px"
	 width="329.99px" height="300.7px" viewBox="0 0 329.99 300.7" style="enable-background:new 0 0 329.99 300.7;"
	 xml:space="preserve">
<style type="text/css">
	.st0{fill:#1C1B3A;}
</style>
<defs>
</defs>
<g>
	<g>
		<path class="st0" d="M328.46,284.94l-69.36-112.73c-1.89-3.08-5.19-4.92-8.81-4.92c-3.62,0-6.91,1.84-8.8,4.92l-9,14.64
			c-1.4,2.28-0.69,5.26,1.59,6.66c2.28,1.4,5.26,0.69,6.66-1.59l9-14.64c0.05-0.08,0.19-0.32,0.56-0.32c0.37,0,0.52,0.24,0.56,0.32
			l69.36,112.73c0.06,0.09,0.2,0.33,0.01,0.66s-0.47,0.34-0.57,0.34h-38.41L173.81,116.41c-0.97-1.57-2.29-2.82-3.84-3.66h0.01
			V79.89c4.03,1.1,7.95,1.56,11.79,1.56c11.04,0,21.38-3.84,31.5-7.59c14.02-5.2,27.26-10.12,41.58-4.38
			c1.84,0.74,3.93,0.52,5.58-0.6c1.65-1.12,2.64-2.97,2.64-4.96V9.23c0-2.41-1.43-4.58-3.64-5.52c-18.18-7.75-34.11-1.84-49.53,3.88
			c-14.44,5.36-28.07,10.42-42.92,3.78c-1.5-0.67-3.24-0.53-4.61,0.36c-1.38,0.89-2.21,2.42-2.21,4.06v0.18
			c-0.08,0.36-0.13,0.73-0.13,1.12v95.65c-1.55,0.84-2.87,2.09-3.83,3.65l-51.01,82.9l-16.67-27.1c-1.89-3.08-5.19-4.92-8.81-4.92
			c-3.62,0-6.91,1.84-8.81,4.92L1.53,284.94c-1.96,3.19-2.04,7.2-0.22,10.46c1.82,3.27,5.29,5.3,9.03,5.3h309.31
			c3.74,0,7.2-2.03,9.03-5.3C330.51,292.14,330.42,288.13,328.46,284.94z M169.83,22.68c15.67,4.3,29.75-0.93,43.42-6
			c13.53-5.02,26.34-9.78,40.11-4.92v47.04c-15.72-4.31-29.81,0.92-43.48,5.99c-13.5,5.01-26.3,9.76-40.05,4.93V22.68z
			 M60.12,291.02l16.61-27c1.4-2.28,0.69-5.26-1.59-6.66c-2.28-1.4-5.26-0.69-6.66,1.59l-19.73,32.07H10.34c-0.1,0-0.39,0-0.57-0.34
			s-0.04-0.57,0.01-0.66l69.36-112.73c0.05-0.08,0.19-0.32,0.56-0.32s0.52,0.24,0.56,0.32l19.23,31.26l-19.21,31.21
			c-1.4,2.28-0.69,5.26,1.59,6.66c2.28,1.4,5.26,0.69,6.66-1.59l75.9-123.36c0.05-0.08,0.19-0.32,0.56-0.32
			c0.37,0,0.52,0.24,0.56,0.32l104.32,169.54L60.12,291.02L60.12,291.02z"/>
	</g>
</g>
</svg>