<svg version="1.1" xmlns="http://www.w3.org/2000/svg" xmlns:xlink="http://www.w3.org/1999/xlink" x="0px" y="0px" width="512px"
	 height="466.55px" viewBox="0 0 512 466.55" style="enable-background:new 0 0 512 466.55;" xml:space="preserve">
<style type="text/css">
	.st0{fill:#771830;}
</style>
<defs>
</defs>
<g>
	<g>
		<path class="st0" d="M509.62,442.1L402,267.19c-2.94-4.78-8.05-7.64-13.67-7.64c-5.61,0-10.72,2.86-13.66,7.64L360.7,289.9
			c-2.17,3.53-1.07,8.16,2.46,10.33c3.54,2.17,8.16,1.07,10.33-2.46l13.97-22.71c0.07-0.12,0.3-0.49,0.87-0.49
			c0.57,0,0.8,0.37,0.87,0.49l107.62,174.91c0.09,0.14,0.31,0.51,0.02,1.03c-0.29,0.52-0.73,0.52-0.89,0.52h-59.6L269.67,180.61
			c-1.5-2.43-3.56-4.37-5.96-5.68c0,0,0.01,0,0.01,0v-50.98c6.25,1.7,12.34,2.42,18.3,2.42c17.13,0,33.17-5.96,48.87-11.78
			c21.75-8.07,42.29-15.7,64.51-6.79c2.86,1.15,6.1,0.8,8.66-0.93c2.56-1.73,4.09-4.61,4.09-7.7V14.32c0-3.74-2.22-7.1-5.65-8.56
			c-28.2-12.03-52.93-2.85-76.84,6.02c-22.4,8.31-43.55,16.17-66.59,5.87c-2.33-1.04-5.02-0.83-7.15,0.56
			c-2.14,1.38-3.43,3.76-3.43,6.3v0.28c-0.13,0.56-0.2,1.14-0.2,1.74v148.41c-2.4,1.31-4.46,3.24-5.95,5.67L163.2,309.23
			l-25.87-42.04c-2.94-4.78-8.05-7.64-13.67-7.64c-5.61,0-10.72,2.86-13.67,7.64L2.38,442.1c-3.04,4.95-3.17,11.17-0.34,16.23
			c2.83,5.07,8.2,8.22,14.01,8.22h479.91c5.81,0,11.17-3.15,14.01-8.22C512.8,453.27,512.67,447.04,509.62,442.1z M263.51,35.18
			c24.32,6.67,46.16-1.44,67.37-9.31c20.99-7.79,40.87-15.17,62.23-7.64v72.99c-24.39-6.69-46.25,1.43-67.46,9.3
			c-20.95,7.78-40.81,15.15-62.14,7.65V35.18z M93.28,451.53l25.77-41.89c2.17-3.53,1.07-8.16-2.46-10.33
			c-3.53-2.17-8.16-1.07-10.33,2.46l-30.61,49.76h-59.6c-0.16,0-0.6,0-0.89-0.52s-0.06-0.89,0.02-1.03l107.62-174.91
			c0.07-0.12,0.3-0.49,0.87-0.49s0.8,0.37,0.87,0.49l29.84,48.5L124.58,372c-2.17,3.53-1.07,8.16,2.46,10.33
			c3.54,2.17,8.16,1.07,10.33-2.46l117.76-191.39c0.07-0.12,0.3-0.49,0.87-0.49c0.57,0,0.8,0.37,0.87,0.49l161.85,263.05H93.28z"/>
	</g>
</g>
</svg>
