<svg version="1.1" xmlns="http://www.w3.org/2000/svg" xmlns:xlink="http://www.w3.org/1999/xlink" x="0px" y="0px" width="330px"
	 height="300px" viewBox="0 0 330 300" style="enable-background:new 0 0 330 300;" xml:space="preserve">
<style type="text/css">
	.st0{fill:#771830;}
</style>
<defs>
</defs>
<path class="st0" d="M292.99,177.35l-1.69,0.83c-6.85-7.56-18.71-10.48-27.75-6.31c-0.04,0.01-0.06,0.03-0.09,0.05l-4,1.96
	c-9.78-7.53-23.7-8.67-34.8-2.86l-21.55,10.65h-28.68c-6.21-0.01-12.33-1.29-17.93-3.74l-3.94-1.73
	c-22.9-10.13-50.12-7.71-70.43,6.26c-0.09,0.06-0.19,0.13-0.27,0.2l-9.53,7.7c-3.6,2.9-7.85,5.06-12.46,6.31l-5.41-16.14
	c-0.55-1.64-2.22-2.76-4.1-2.76H4.29c-2.37,0-4.29,1.75-4.29,3.9c0,0.16,0.01,0.32,0.03,0.47l15.35,114.44
	c0.26,1.96,2.09,3.42,4.26,3.42h69.08c2.37,0,4.29-1.75,4.29-3.9c0-0.38-0.06-0.77-0.19-1.14l-9.08-27.07l28.26-16.24
	c3.78-1.9,8.22-2.42,12.41-1.46c0.09,0.02,0.18,0.04,0.27,0.05l57.5,9.63c15.63,2.54,31.74,0.47,45.98-5.9
	c0.18-0.08,0.36-0.18,0.52-0.28l99.45-62.07c1.87-1.17,2.42-3.46,1.24-5.22C321.87,175.01,305.83,171.03,292.99,177.35z
	 M267.47,178.79c5.23-2.38,11.81-0.43,16.01,3.22l-37.71,18.49l-2.22,1.06c-1.19-3.08-2.94-5.96-5.17-8.53L267.47,178.79z
	 M228.79,177.83c0.04-0.02,0.07-0.03,0.1-0.05c6.88-3.61,15.38-3.54,22.18,0.19l-19.17,9.39c-3.66-2.42-7.83-4.13-12.25-5.01
	L228.79,177.83z M23.43,292.2L9.13,185.56h38.04L82.94,292.2H23.43z M224.09,247.1c-12.52,5.54-26.66,7.33-40.36,5.1l-57.36-9.6
	c-6.31-1.42-12.98-0.6-18.64,2.3c-0.06,0.03-0.14,0.07-0.2,0.11l-26.38,15.16l-18.79-56.03c5.8-1.59,11.14-4.31,15.66-7.96l9.39-7.6
	c17.74-12.12,41.45-14.19,61.4-5.37l3.94,1.73c6.76,2.96,14.16,4.5,21.66,4.51h38.25c11.59,0.01,21.55,7.5,23.73,17.86l-27.73-1.14
	c-10.08-0.41-20.18,0.01-30.17,1.27c-2.34,0.32-3.96,2.3-3.61,4.43c0.34,2.1,2.47,3.57,4.79,3.29c9.48-1.19,19.05-1.59,28.61-1.2
	l32.63,1.34c0.06,0,0.13,0.01,0.19,0.01c2.37,0,4.29-1.75,4.29-3.9c0-0.63-0.03-1.25-0.07-1.88l4.47-2.14l47.27-23.18
	c7.47-3.68,16.71-2.33,22.54,3.29L224.09,247.1z"/>
<path class="st0" d="M37.07,276.08c0,6.78,6.05,12.27,13.5,12.27s13.5-5.5,13.5-12.27s-6.05-12.27-13.5-12.27
	C43.11,263.82,37.07,269.31,37.07,276.08z M50.57,271.61c2.72,0,4.92,2,4.92,4.48c0,2.48-2.2,4.48-4.92,4.48
	c-2.72,0-4.92-2-4.92-4.48C45.64,273.61,47.84,271.61,50.57,271.61L50.57,271.61z"/>
<path class="st0" d="M197.6,42.29V29.45C197.52,13.11,182.88-0.08,164.91,0c-17.86,0.08-32.31,13.21-32.39,29.45v12.84
	c0.09,16.34,14.72,29.53,32.7,29.45C183.06,71.67,197.52,58.52,197.6,42.29z M141.09,42.29V29.45c0.07-12.04,10.86-21.74,24.1-21.67
	c13.13,0.06,23.77,9.73,23.84,21.67v12.84c-0.07,12.04-10.86,21.74-24.1,21.67C151.79,63.9,141.16,54.24,141.09,42.29z"/>
<path class="st0" d="M112.6,152.15h104.92c2.37,0,4.29-1.75,4.29-3.9l0,0v-8.95h71.83c2.37,0,4.29-1.75,4.29-3.9v-25.3
	c-0.01-15.41-13.18-28.16-30.09-29.14c-2.29-0.16-3.47,1.16-4.42,2.22c-6.88,7.65-19.28,8.77-27.69,2.51
	c-1.26-0.94-2.39-2.01-3.35-3.2c-0.83-1.02-2.16-1.61-3.56-1.58c-5.57,0.12-11.01,1.56-15.77,4.18
	c-6.35-6.72-15.43-10.81-25.15-11.34c-2.22-0.08-3.34,1.14-4.42,2.34c-8.08,8.97-22.62,10.29-32.49,2.95
	c-1.48-1.1-2.8-2.36-3.94-3.76c-0.83-1.03-2.16-1.61-3.56-1.58c-9.4,0.19-18.34,3.74-24.9,9.87c-0.54,0.5-1.06,1.03-1.56,1.55
	c-4.43-2.45-9.45-3.88-14.62-4.17c-2.28-0.16-3.47,1.16-4.42,2.22c-6.88,7.65-19.28,8.77-27.69,2.51c-1.26-0.94-2.39-2.01-3.35-3.2
	c-0.83-1.02-2.16-1.61-3.55-1.58c-17.42,0.4-31.31,13.35-31.31,29.19v25.3c0,2.15,1.92,3.9,4.29,3.9h71.94v8.95
	C108.31,150.41,110.23,152.15,112.6,152.15z M226.98,88.85c10.32,10.65,28.17,11.67,39.88,2.29c0.86-0.69,1.67-1.42,2.42-2.19
	c11.52,1.58,20.05,10.58,20.06,21.17v21.4h-67.54v-25c0.01-5.19-1.35-10.31-3.97-14.92C220.65,90.1,223.75,89.17,226.98,88.85
	L226.98,88.85z M141.63,81.63c11.43,12.03,31.43,13.36,44.66,2.97c1.13-0.88,2.19-1.84,3.17-2.86
	c13.61,1.71,23.75,12.28,23.77,24.78v37.85h-96.35v-37.85C116.97,93.7,127.62,83,141.63,81.63z M40.65,131.52v-21.4
	c0.07-10.87,9.03-19.98,20.9-21.27c10.32,10.64,28.17,11.67,39.88,2.29c0.86-0.68,1.67-1.42,2.42-2.19c2.95,0.4,5.8,1.31,8.37,2.68
	c-2.59,4.61-3.93,9.71-3.92,14.88v25L40.65,131.52z"/>
<path class="st0" d="M276.74,53.91V42.66c0-14.57-12.99-26.38-29.02-26.38S218.7,28.09,218.7,42.66v11.24
	c0,14.57,12.99,26.38,29.02,26.38S276.74,68.48,276.74,53.91z M227.26,53.91V42.66c0-10.26,9.15-18.59,20.45-18.59
	c11.3-0.01,20.45,8.32,20.45,18.59v0.01v11.24c0,10.26-9.15,18.59-20.45,18.59S227.27,64.18,227.26,53.91
	C227.26,53.91,227.26,53.91,227.26,53.91z"/>
<path class="st0" d="M111.31,53.91V42.66c0-14.57-12.99-26.38-29.02-26.38S53.27,28.09,53.27,42.66v11.24
	c0,14.57,12.99,26.38,29.02,26.38S111.31,68.48,111.31,53.91z M61.84,53.91V42.66c0-10.26,9.15-18.59,20.45-18.59
	c11.3-0.01,20.45,8.32,20.45,18.59v0.01v11.24c0,10.26-9.15,18.59-20.45,18.59S61.85,64.18,61.84,53.91
	C61.84,53.91,61.84,53.91,61.84,53.91z"/>
</svg>