<svg version="1.1" xmlns="http://www.w3.org/2000/svg" xmlns:xlink="http://www.w3.org/1999/xlink" x="0px" y="0px" width="330px"
	 height="300px" viewBox="0 0 330 300" style="enable-background:new 0 0 330 300;" xml:space="preserve">
<style type="text/css">
	.st0{fill:#771830;}
</style>
<defs>
</defs>
<path class="st0" d="M202.26,280.65c12.73,0,24.69-5.12,32.81-14.04l2.33-2.56l-1.8-2.9c-0.93-1.52-1.41-3.1-1.41-4.69
	c0-4.03,2.84-7.68,7.07-9.06l3.29-1.46l0.25-3.14c0.03-0.28,0.04-0.57,0.04-0.86c0-21.34-19.1-38.71-42.58-38.71
	s-42.58,17.36-42.58,38.71C159.68,263.28,178.78,280.65,202.26,280.65z M234.08,239.81c-6.43,3.42-10.53,9.74-10.53,16.64
	c0,2.1,0.39,4.15,1.14,6.15c-5.95,5.35-13.97,8.37-22.43,8.37c-17.61,0-31.94-13.02-31.94-29.03c0-3.81,0.83-7.44,2.3-10.78
	c3.49,6.36,10.65,10.78,18.99,10.78c11.74,0,21.29-8.68,21.29-19.35c0-3.08-0.84-6.02-2.32-8.65
	C223.39,217.09,233.04,227.31,234.08,239.81z M202.26,222.58c0,5.33-4.78,9.68-10.65,9.68s-10.65-4.34-10.65-9.68
	c0-0.86,0.19-1.74,0.47-2.61c3.93-3.08,8.67-5.3,13.91-6.36C199.45,215.01,202.26,218.56,202.26,222.58z"/>
<path class="st0" d="M325.51,230.3l-0.99-0.93c-5.02-4.49-10.32-8.63-15.81-12.5V87.1h-31.94v111.91
	c-3.49-1.51-7.05-2.88-10.65-4.17v-88.39h-31.94v80.09c-3.52-0.59-7.07-1.07-10.65-1.46v-59.27h-31.94v58.39
	c-30.66,1.68-59.87,10.52-85.16,25.69v-26.02c0-13.34-11.94-24.19-26.61-24.19H69.19v-53.23h31.62c8.24,0,16.37-2.53,22.87-7.13
	l33.73-23.85c4.01-2.83,6.48-6.88,7.23-11.35l26.96,3.06v10.25h42.58c0,5.33,4.78,9.68,10.65,9.68h10.65
	c5.87,0,10.65-4.34,10.65-9.68V9.68c0-5.33-4.78-9.68-10.65-9.68h-10.65c-5.87,0-10.65,4.34-10.65,9.68h-42.58v10.25l-85.16,9.68
	v27.9l8.32,0.94L95.44,71.62c-0.91,0.62-2.04,0.96-3.19,0.96H79.24c6.93-6.16,11.24-14.72,11.24-24.19
	c0-18.68-16.72-33.87-37.26-33.87S15.97,29.71,15.97,48.39c0,10.01,4.83,18.99,12.45,25.2C12.14,77.21,0,90.54,0,106.45v67.74
	v106.45C0,291.32,9.55,300,21.29,300s21.29-8.68,21.29-19.35v-82.26h21.29l-0.01,29.02c-0.01,7.03,4.31,13.43,10.86,16.81
	c0.47,3.4,1.91,6.66,4.27,9.35l0.99,0.93c32.81,29.34,76.24,45.5,122.27,45.5s89.45-16.16,122.26-45.49l1-0.93
	c2.89-3.3,4.48-7.43,4.48-11.64S328.4,233.59,325.51,230.3L325.51,230.3z M244.84,9.68h10.65l0.01,67.74h-10.65V9.68z M287.42,96.77
	h10.65v113.12c-3.47-2.08-7.04-4-10.65-5.84V96.77z M244.84,116.13h10.65v75.28c-3.51-1.02-7.06-1.97-10.65-2.79V116.13z
	 M255.48,241.94c0,26.68-23.88,48.39-53.23,48.39s-53.23-21.71-53.23-48.39s23.88-48.39,53.23-48.39S255.48,215.26,255.48,241.94z
	 M202.26,135.48h10.65v48.71c-3.53-0.19-7.08-0.33-10.65-0.33V135.48z M202.26,19.35h31.94v48.39h-31.94V19.35z M117.1,48.96V38.14
	l74.52-8.47v27.75l-28.3-3.22c-3.05-6.27-9.93-10.66-17.94-10.66h-2.22c-4.22,0-8.4,1.27-11.78,3.57l-4.35,2.96L117.1,48.96z
	 M26.61,48.39c0-13.34,11.94-24.19,26.61-24.19s26.61,10.85,26.61,24.19S67.9,72.58,53.23,72.58S26.61,61.73,26.61,48.39z
	 M31.94,280.65c0,5.33-4.78,9.68-10.65,9.68s-10.65-4.34-10.65-9.68v-87.22c4.46,3.07,9.95,4.97,15.97,4.97h5.32V280.65z
	 M63.87,188.71H26.61c-8.8,0-15.97-6.51-15.97-14.52v-67.74c0-13.34,11.94-24.19,26.61-24.19h55c3.44,0,6.84-1.03,9.58-2.9
	l35.93-24.5c1.55-1.05,3.46-1.63,5.39-1.63h2.22c4.94,0,8.98,3.66,8.98,8.16c0,2.53-1.26,4.88-3.47,6.44l-33.73,23.85
	c-4.64,3.28-10.45,5.09-16.34,5.09H58.55v72.58h21.29c8.8,0,15.97,6.51,15.97,14.52v33c-5.49,3.86-10.78,8-15.81,12.5l-1,0.93
	c-0.84,0.96-1.54,2.01-2.16,3.09c-1.45-1.68-2.34-3.75-2.34-5.98l0.01-29.03C74.52,193.05,69.74,188.71,63.87,188.71z M87.46,247.6
	l-0.31-0.28c-1.28-1.55-1.98-3.45-1.98-5.39s0.71-3.84,1.98-5.39l0.31-0.28c20.48-18.3,45.36-31.11,72.43-37.66
	c-13.16,10.63-21.5,26.09-21.5,43.32s8.34,32.69,21.5,43.33C132.82,278.71,107.93,265.91,87.46,247.6L87.46,247.6z M317.37,247.32
	l-0.31,0.28c-20.48,18.3-45.36,31.11-72.43,37.66c13.15-10.63,21.5-26.09,21.5-43.32s-8.34-32.69-21.5-43.33
	c27.07,6.56,51.96,19.36,72.43,37.66l0.31,0.28c1.28,1.55,1.98,3.45,1.98,5.39C319.35,243.87,318.65,245.78,317.37,247.32
	L317.37,247.32z"/>
</svg>