<svg version="1.1" xmlns="http://www.w3.org/2000/svg" xmlns:xlink="http://www.w3.org/1999/xlink" x="0px" y="0px" width="290px"
	 height="265px" viewBox="0 0 290 265" style="enable-background:new 0 0 290 265;" xml:space="preserve">
<style type="text/css">
	.st0{fill:#8A9597;}
</style>
<defs>
</defs>
<path class="st0" d="M177.75,247.91c11.19,0,21.7-4.52,28.83-12.4l2.05-2.26l-1.58-2.56c-0.82-1.34-1.24-2.74-1.24-4.14
	c0-3.56,2.5-6.78,6.21-8l2.89-1.29l0.22-2.77c0.03-0.25,0.04-0.5,0.04-0.76c0-18.85-16.79-34.19-37.42-34.19
	s-37.42,15.33-37.42,34.19C140.33,232.56,157.11,247.91,177.75,247.91z M205.71,211.83c-5.65,3.02-9.25,8.6-9.25,14.7
	c0,1.86,0.34,3.67,1,5.43c-5.23,4.73-12.28,7.39-19.71,7.39c-15.48,0-28.07-11.5-28.07-25.64c0-3.37,0.73-6.57,2.02-9.52
	c3.07,5.62,9.36,9.52,16.69,9.52c10.32,0,18.71-7.67,18.71-17.09c0-2.72-0.74-5.32-2.04-7.64
	C196.32,191.76,204.8,200.79,205.71,211.83z M177.75,196.61c0,4.71-4.2,8.55-9.36,8.55c-5.16,0-9.36-3.83-9.36-8.55
	c0-0.76,0.17-1.54,0.41-2.31c3.45-2.72,7.62-4.68,12.22-5.62C175.28,189.93,177.75,193.06,177.75,196.61z"/>
<path class="st0" d="M286.06,203.43l-0.87-0.82c-4.41-3.97-9.07-7.62-13.89-11.04V76.94h-28.07v98.85c-3.07-1.33-6.2-2.54-9.36-3.68
	V94.03H205.8v70.75c-3.09-0.52-6.21-0.95-9.36-1.29v-52.36h-28.07v51.58c-26.94,1.48-52.61,9.29-74.84,22.69v-22.98
	c0-11.78-10.49-21.37-23.39-21.37h-9.34V94.03h27.79c7.24,0,14.39-2.23,20.1-6.3l29.64-21.07c3.52-2.5,5.69-6.08,6.35-10.03
	l23.69,2.7v9.05h37.42c0,4.71,4.2,8.55,9.36,8.55h9.36c5.16,0,9.36-3.83,9.36-8.55V8.55c0-4.71-4.2-8.55-9.36-8.55h-9.36
	c-5.16,0-9.36,3.83-9.36,8.55h-37.42v9.05l-74.84,8.55V50.8l7.31,0.83L83.87,63.26c-0.8,0.55-1.79,0.85-2.8,0.85H69.64
	c6.09-5.44,9.88-13,9.88-21.37c0-16.5-14.69-29.92-32.74-29.92S14.03,26.24,14.03,42.74c0,8.84,4.24,16.77,10.94,22.26
	C10.67,68.2,0,79.98,0,94.03v59.84v94.03c0,9.43,8.39,17.1,18.71,17.1s18.71-7.67,18.71-17.09v-72.66h18.71l-0.01,25.63
	c-0.01,6.21,3.79,11.86,9.54,14.85c0.41,3,1.68,5.88,3.75,8.26l0.87,0.82c28.83,25.92,67,40.19,107.45,40.19
	s78.61-14.27,107.44-40.18l0.88-0.82c2.54-2.92,3.94-6.56,3.94-10.28S288.6,206.34,286.06,203.43L286.06,203.43z M215.17,8.55h9.36
	l0.01,59.84h-9.36L215.17,8.55L215.17,8.55z M252.59,85.48h9.36v99.92c-3.05-1.84-6.19-3.53-9.36-5.16V85.48z M215.17,102.58h9.36
	v66.5c-3.08-0.9-6.2-1.74-9.36-2.46V102.58z M224.52,213.71c0,23.57-20.99,42.74-46.78,42.74s-46.78-19.18-46.78-42.74
	s20.99-42.74,46.78-42.74S224.52,190.15,224.52,213.71z M177.75,119.67h9.36v43.03c-3.1-0.17-6.22-0.29-9.36-0.29V119.67z
	 M177.75,17.09h28.07v42.74h-28.07V17.09z M102.91,43.25v-9.56l65.49-7.48v24.51l-24.87-2.84c-2.68-5.54-8.73-9.42-15.77-9.42h-1.95
	c-3.71,0-7.38,1.12-10.35,3.15l-3.82,2.61L102.91,43.25z M23.39,42.74c0-11.78,10.49-21.37,23.39-21.37s23.39,9.58,23.39,21.37
	S59.67,64.11,46.78,64.11S23.39,54.53,23.39,42.74z M28.07,247.91c0,4.71-4.2,8.55-9.36,8.55s-9.36-3.83-9.36-8.55v-77.04
	c3.92,2.71,8.74,4.39,14.03,4.39h4.68L28.07,247.91L28.07,247.91z M56.13,166.69H23.39c-7.73,0-14.03-5.75-14.03-12.83V94.03
	c0-11.78,10.49-21.37,23.39-21.37h48.33c3.02,0,6.01-0.91,8.42-2.56l31.58-21.64c1.36-0.93,3.04-1.44,4.74-1.44h1.95
	c4.34,0,7.89,3.23,7.89,7.21c0,2.23-1.11,4.31-3.05,5.69l-29.64,21.07c-4.08,2.9-9.18,4.5-14.36,4.5H51.45v64.11h18.71
	c7.73,0,14.03,5.75,14.03,12.83v29.15c-4.82,3.41-9.47,7.07-13.89,11.04l-0.88,0.82c-0.74,0.85-1.35,1.78-1.9,2.73
	c-1.27-1.48-2.06-3.31-2.06-5.28l0.01-25.64C65.49,170.53,61.29,166.69,56.13,166.69z M76.86,218.71l-0.27-0.25
	c-1.12-1.37-1.74-3.05-1.74-4.76s0.62-3.39,1.74-4.76l0.27-0.25c18-16.16,39.86-27.48,63.65-33.27
	c-11.57,9.39-18.89,23.05-18.89,38.27c0,15.22,7.33,28.88,18.89,38.27C116.72,246.19,94.85,234.89,76.86,218.71L76.86,218.71z
	 M278.91,218.47l-0.27,0.25c-18,16.16-39.86,27.48-63.65,33.27c11.56-9.39,18.89-23.05,18.89-38.27s-7.33-28.88-18.89-38.27
	c23.79,5.79,45.66,17.1,63.65,33.27l0.27,0.25c1.12,1.37,1.74,3.05,1.74,4.76C280.65,215.42,280.03,217.11,278.91,218.47
	L278.91,218.47z"/>
</svg>